<mxfile host="app.diagrams.net" modified="2021-10-26T17:11:57.512Z" agent="5.0 (Windows NT 10.0; Win64; x64) AppleWebKit/537.36 (KHTML, like Gecko) Chrome/94.0.4606.81 Safari/537.36 OPR/80.0.4170.63" etag="vPaTUIOG7C4zQBcQDRvB" version="15.3.6" type="github" pages="3">
  <diagram id="rCO-S3cGElvfJxrSumhy" name="road map">
    <mxGraphModel dx="1200" dy="827" grid="1" gridSize="10" guides="1" tooltips="1" connect="1" arrows="1" fold="1" page="1" pageScale="1" pageWidth="827" pageHeight="1169" math="0" shadow="0">
      <root>
        <mxCell id="0" />
        <mxCell id="1" parent="0" />
        <mxCell id="Ra6Qo5d16cM2mgNAvNcz-1" value="Веб приложение для изучения современных языков программирования" style="rounded=0;whiteSpace=wrap;html=1;hachureGap=4;pointerEvents=0;" vertex="1" parent="1">
          <mxGeometry x="80" y="40" width="310" height="40" as="geometry" />
        </mxCell>
        <mxCell id="Ra6Qo5d16cM2mgNAvNcz-2" value="тема" style="text;html=1;strokeColor=none;fillColor=none;align=center;verticalAlign=middle;whiteSpace=wrap;rounded=0;hachureGap=4;pointerEvents=0;" vertex="1" parent="1">
          <mxGeometry x="80" y="20" width="40" height="20" as="geometry" />
        </mxCell>
        <mxCell id="Ra6Qo5d16cM2mgNAvNcz-3" value="Реализация функционала" style="rounded=0;whiteSpace=wrap;html=1;hachureGap=4;pointerEvents=0;fillColor=#dae8fc;strokeColor=#6c8ebf;" vertex="1" parent="1">
          <mxGeometry x="80" y="120" width="160" height="40" as="geometry" />
        </mxCell>
        <mxCell id="Ra6Qo5d16cM2mgNAvNcz-4" value="инициативы" style="text;html=1;strokeColor=none;fillColor=none;align=center;verticalAlign=middle;whiteSpace=wrap;rounded=0;hachureGap=4;pointerEvents=0;" vertex="1" parent="1">
          <mxGeometry x="80" y="100" width="70" height="20" as="geometry" />
        </mxCell>
        <mxCell id="Ra6Qo5d16cM2mgNAvNcz-5" value="Изучение материала" style="rounded=0;whiteSpace=wrap;html=1;hachureGap=4;pointerEvents=0;fillColor=#ffe6cc;strokeColor=#d79b00;" vertex="1" parent="1">
          <mxGeometry x="80" y="200" width="120" height="30" as="geometry" />
        </mxCell>
        <mxCell id="Ra6Qo5d16cM2mgNAvNcz-6" value="эпики" style="text;html=1;strokeColor=none;fillColor=none;align=center;verticalAlign=middle;whiteSpace=wrap;rounded=0;hachureGap=4;pointerEvents=0;" vertex="1" parent="1">
          <mxGeometry x="80" y="180" width="40" height="20" as="geometry" />
        </mxCell>
        <mxCell id="Ra6Qo5d16cM2mgNAvNcz-7" value="Оценивание пройденного материала" style="rounded=0;whiteSpace=wrap;html=1;hachureGap=4;pointerEvents=0;fillColor=#ffe6cc;strokeColor=#d79b00;" vertex="1" parent="1">
          <mxGeometry x="281" y="200" width="149" height="30" as="geometry" />
        </mxCell>
        <mxCell id="Ra6Qo5d16cM2mgNAvNcz-8" value="как студент" style="text;html=1;strokeColor=none;fillColor=none;align=center;verticalAlign=middle;whiteSpace=wrap;rounded=0;hachureGap=4;pointerEvents=0;" vertex="1" parent="1">
          <mxGeometry x="81" y="260" width="109" height="20" as="geometry" />
        </mxCell>
        <mxCell id="Ra6Qo5d16cM2mgNAvNcz-9" value="я хочу выбирать тему изучаемого материала" style="rounded=0;whiteSpace=wrap;html=1;hachureGap=4;pointerEvents=0;fillColor=#f5f5f5;strokeColor=#666666;fontColor=#333333;" vertex="1" parent="1">
          <mxGeometry x="80" y="280" width="140" height="30" as="geometry" />
        </mxCell>
        <mxCell id="Ra6Qo5d16cM2mgNAvNcz-10" value="я хочу отмечать изученный материал" style="rounded=0;whiteSpace=wrap;html=1;hachureGap=4;pointerEvents=0;fillColor=#f5f5f5;strokeColor=#666666;fontColor=#333333;" vertex="1" parent="1">
          <mxGeometry x="80" y="320" width="140" height="30" as="geometry" />
        </mxCell>
        <mxCell id="Ra6Qo5d16cM2mgNAvNcz-11" value="я хочу задавать дз" style="rounded=0;whiteSpace=wrap;html=1;hachureGap=4;pointerEvents=0;" vertex="1" parent="1">
          <mxGeometry x="81" y="380" width="140" height="30" as="geometry" />
        </mxCell>
        <mxCell id="Ra6Qo5d16cM2mgNAvNcz-12" value="как преподаватель:" style="text;html=1;strokeColor=none;fillColor=none;align=center;verticalAlign=middle;whiteSpace=wrap;rounded=0;hachureGap=4;pointerEvents=0;" vertex="1" parent="1">
          <mxGeometry x="80" y="360" width="120" height="20" as="geometry" />
        </mxCell>
        <mxCell id="Ra6Qo5d16cM2mgNAvNcz-13" value="я хочу составлять план изучения&amp;nbsp;" style="rounded=0;whiteSpace=wrap;html=1;hachureGap=4;pointerEvents=0;" vertex="1" parent="1">
          <mxGeometry x="80" y="420" width="140" height="30" as="geometry" />
        </mxCell>
        <mxCell id="Ra6Qo5d16cM2mgNAvNcz-14" value="я хочу группировать студентов в классы" style="rounded=0;whiteSpace=wrap;html=1;hachureGap=4;pointerEvents=0;fillColor=#f5f5f5;strokeColor=#666666;fontColor=#333333;" vertex="1" parent="1">
          <mxGeometry x="80" y="490" width="140" height="30" as="geometry" />
        </mxCell>
        <mxCell id="Ra6Qo5d16cM2mgNAvNcz-15" value="я хочу проверять работы учеников" style="rounded=0;whiteSpace=wrap;html=1;hachureGap=4;pointerEvents=0;" vertex="1" parent="1">
          <mxGeometry x="281" y="420" width="140" height="30" as="geometry" />
        </mxCell>
        <mxCell id="Ra6Qo5d16cM2mgNAvNcz-16" value="как администратор:" style="text;html=1;strokeColor=none;fillColor=none;align=center;verticalAlign=middle;whiteSpace=wrap;rounded=0;hachureGap=4;pointerEvents=0;" vertex="1" parent="1">
          <mxGeometry x="80" y="470" width="120" height="20" as="geometry" />
        </mxCell>
        <mxCell id="Ra6Qo5d16cM2mgNAvNcz-17" value="как студент" style="text;html=1;strokeColor=none;fillColor=none;align=center;verticalAlign=middle;whiteSpace=wrap;rounded=0;hachureGap=4;pointerEvents=0;" vertex="1" parent="1">
          <mxGeometry x="282" y="260" width="109" height="20" as="geometry" />
        </mxCell>
        <mxCell id="Ra6Qo5d16cM2mgNAvNcz-18" value="получать проверочные работы" style="rounded=0;whiteSpace=wrap;html=1;hachureGap=4;pointerEvents=0;fillColor=#f5f5f5;strokeColor=#666666;fontColor=#333333;" vertex="1" parent="1">
          <mxGeometry x="281" y="280" width="140" height="30" as="geometry" />
        </mxCell>
        <mxCell id="Ra6Qo5d16cM2mgNAvNcz-19" value="&lt;span&gt;я хочу проверочные работы разного типа&lt;/span&gt;" style="rounded=0;whiteSpace=wrap;html=1;hachureGap=4;pointerEvents=0;fillColor=#f5f5f5;strokeColor=#666666;fontColor=#333333;" vertex="1" parent="1">
          <mxGeometry x="281" y="320" width="140" height="30" as="geometry" />
        </mxCell>
        <mxCell id="Ra6Qo5d16cM2mgNAvNcz-20" value="я хочу составлять проверочные работы" style="rounded=0;whiteSpace=wrap;html=1;hachureGap=4;pointerEvents=0;" vertex="1" parent="1">
          <mxGeometry x="281" y="380" width="140" height="30" as="geometry" />
        </mxCell>
        <mxCell id="Ra6Qo5d16cM2mgNAvNcz-21" value="как преподаватель:" style="text;html=1;strokeColor=none;fillColor=none;align=center;verticalAlign=middle;whiteSpace=wrap;rounded=0;hachureGap=4;pointerEvents=0;" vertex="1" parent="1">
          <mxGeometry x="280" y="360" width="120" height="20" as="geometry" />
        </mxCell>
        <mxCell id="Ra6Qo5d16cM2mgNAvNcz-22" value="просматривать успеваемость&amp;nbsp;" style="rounded=0;whiteSpace=wrap;html=1;hachureGap=4;pointerEvents=0;fillColor=#f5f5f5;strokeColor=#666666;fontColor=#333333;" vertex="1" parent="1">
          <mxGeometry x="280" y="490" width="140" height="30" as="geometry" />
        </mxCell>
        <mxCell id="Ra6Qo5d16cM2mgNAvNcz-23" value="как администратор:" style="text;html=1;strokeColor=none;fillColor=none;align=center;verticalAlign=middle;whiteSpace=wrap;rounded=0;hachureGap=4;pointerEvents=0;" vertex="1" parent="1">
          <mxGeometry x="280" y="470" width="120" height="20" as="geometry" />
        </mxCell>
        <mxCell id="Ra6Qo5d16cM2mgNAvNcz-24" value="Обратная связь" style="rounded=0;whiteSpace=wrap;html=1;hachureGap=4;pointerEvents=0;fillColor=#ffe6cc;strokeColor=#d79b00;" vertex="1" parent="1">
          <mxGeometry x="500" y="200" width="149" height="30" as="geometry" />
        </mxCell>
        <mxCell id="Ra6Qo5d16cM2mgNAvNcz-26" value="как студент" style="text;html=1;strokeColor=none;fillColor=none;align=center;verticalAlign=middle;whiteSpace=wrap;rounded=0;hachureGap=4;pointerEvents=0;" vertex="1" parent="1">
          <mxGeometry x="501" y="260" width="109" height="20" as="geometry" />
        </mxCell>
        <mxCell id="Ra6Qo5d16cM2mgNAvNcz-27" value="получать оценку за работу" style="rounded=0;whiteSpace=wrap;html=1;hachureGap=4;pointerEvents=0;fillColor=#f5f5f5;strokeColor=#666666;fontColor=#333333;" vertex="1" parent="1">
          <mxGeometry x="500" y="280" width="140" height="30" as="geometry" />
        </mxCell>
        <mxCell id="Ra6Qo5d16cM2mgNAvNcz-28" value="&lt;span&gt;задавать вопросы по оцениванию работ&lt;/span&gt;" style="rounded=0;whiteSpace=wrap;html=1;hachureGap=4;pointerEvents=0;fillColor=#f5f5f5;strokeColor=#666666;fontColor=#333333;" vertex="1" parent="1">
          <mxGeometry x="500" y="320" width="140" height="30" as="geometry" />
        </mxCell>
        <mxCell id="Ra6Qo5d16cM2mgNAvNcz-33" value="оставлять комментарии к работам" style="rounded=0;whiteSpace=wrap;html=1;hachureGap=4;pointerEvents=0;" vertex="1" parent="1">
          <mxGeometry x="500" y="420" width="140" height="30" as="geometry" />
        </mxCell>
        <mxCell id="Ra6Qo5d16cM2mgNAvNcz-34" value="ставить оценки за проверочные работы" style="rounded=0;whiteSpace=wrap;html=1;hachureGap=4;pointerEvents=0;" vertex="1" parent="1">
          <mxGeometry x="500" y="380" width="140" height="30" as="geometry" />
        </mxCell>
        <mxCell id="Ra6Qo5d16cM2mgNAvNcz-35" value="как преподаватель:" style="text;html=1;strokeColor=none;fillColor=none;align=center;verticalAlign=middle;whiteSpace=wrap;rounded=0;hachureGap=4;pointerEvents=0;" vertex="1" parent="1">
          <mxGeometry x="499" y="360" width="120" height="20" as="geometry" />
        </mxCell>
        <mxCell id="Ra6Qo5d16cM2mgNAvNcz-42" value="Реализация интерфейса" style="rounded=0;whiteSpace=wrap;html=1;hachureGap=4;pointerEvents=0;fillColor=#dae8fc;strokeColor=#6c8ebf;" vertex="1" parent="1">
          <mxGeometry x="81" y="565" width="160" height="40" as="geometry" />
        </mxCell>
        <mxCell id="Ra6Qo5d16cM2mgNAvNcz-43" value="Работа с интерфейсом" style="rounded=0;whiteSpace=wrap;html=1;hachureGap=4;pointerEvents=0;fillColor=#ffe6cc;strokeColor=#d79b00;" vertex="1" parent="1">
          <mxGeometry x="81" y="620" width="120" height="30" as="geometry" />
        </mxCell>
        <mxCell id="Ra6Qo5d16cM2mgNAvNcz-44" value="как пользователь:" style="text;html=1;strokeColor=none;fillColor=none;align=center;verticalAlign=middle;whiteSpace=wrap;rounded=0;hachureGap=4;pointerEvents=0;" vertex="1" parent="1">
          <mxGeometry x="82" y="670" width="109" height="20" as="geometry" />
        </mxCell>
        <mxCell id="Ra6Qo5d16cM2mgNAvNcz-45" value="иметь возможность сменить дневную тему&amp;nbsp;" style="rounded=0;whiteSpace=wrap;html=1;hachureGap=4;pointerEvents=0;fillColor=#f5f5f5;strokeColor=#666666;fontColor=#333333;" vertex="1" parent="1">
          <mxGeometry x="81" y="690" width="140" height="30" as="geometry" />
        </mxCell>
        <mxCell id="Ra6Qo5d16cM2mgNAvNcz-46" value="пользоваться интуитивно-понятным интерфейсом" style="rounded=0;whiteSpace=wrap;html=1;hachureGap=4;pointerEvents=0;fillColor=#f5f5f5;strokeColor=#666666;fontColor=#333333;" vertex="1" parent="1">
          <mxGeometry x="81" y="730" width="140" height="40" as="geometry" />
        </mxCell>
        <mxCell id="Ra6Qo5d16cM2mgNAvNcz-47" value="создать интуитивно понятный интерфейс" style="rounded=0;whiteSpace=wrap;html=1;hachureGap=4;pointerEvents=0;" vertex="1" parent="1">
          <mxGeometry x="80.5" y="810" width="140" height="30" as="geometry" />
        </mxCell>
        <mxCell id="Ra6Qo5d16cM2mgNAvNcz-48" value="как разработчик&amp;nbsp;" style="text;html=1;strokeColor=none;fillColor=none;align=center;verticalAlign=middle;whiteSpace=wrap;rounded=0;hachureGap=4;pointerEvents=0;" vertex="1" parent="1">
          <mxGeometry x="79.5" y="790" width="100.5" height="20" as="geometry" />
        </mxCell>
      </root>
    </mxGraphModel>
  </diagram>
  <diagram id="69btZ3CNnku8qDvFwQOJ" name="бд_лог">
    <mxGraphModel dx="988" dy="1850" grid="1" gridSize="10" guides="1" tooltips="1" connect="1" arrows="1" fold="1" page="1" pageScale="1" pageWidth="827" pageHeight="1169" math="0" shadow="0">
      <root>
        <mxCell id="frFDjsqqBPVcF-4FdYOh-0" />
        <mxCell id="frFDjsqqBPVcF-4FdYOh-1" parent="frFDjsqqBPVcF-4FdYOh-0" />
        <mxCell id="eX2jxu2ITeucqgjZJR2B-36" style="edgeStyle=none;curved=1;rounded=0;orthogonalLoop=1;jettySize=auto;html=1;exitX=1;exitY=0;exitDx=0;exitDy=0;entryX=0;entryY=0;entryDx=0;entryDy=0;endArrow=open;startSize=14;endSize=14;sourcePerimeterSpacing=8;targetPerimeterSpacing=8;" edge="1" parent="frFDjsqqBPVcF-4FdYOh-1" source="eX2jxu2ITeucqgjZJR2B-5" target="eX2jxu2ITeucqgjZJR2B-9">
          <mxGeometry relative="1" as="geometry" />
        </mxCell>
        <mxCell id="eX2jxu2ITeucqgjZJR2B-5" value="пользователь" style="swimlane;fontStyle=0;childLayout=stackLayout;horizontal=1;startSize=26;fillColor=none;horizontalStack=0;resizeParent=1;resizeParentMax=0;resizeLast=0;collapsible=1;marginBottom=0;hachureGap=4;pointerEvents=0;" vertex="1" parent="frFDjsqqBPVcF-4FdYOh-1">
          <mxGeometry x="20" y="30" width="140" height="52" as="geometry" />
        </mxCell>
        <mxCell id="eX2jxu2ITeucqgjZJR2B-6" value="name" style="text;strokeColor=none;fillColor=none;align=left;verticalAlign=top;spacingLeft=4;spacingRight=4;overflow=hidden;rotatable=0;points=[[0,0.5],[1,0.5]];portConstraint=eastwest;" vertex="1" parent="eX2jxu2ITeucqgjZJR2B-5">
          <mxGeometry y="26" width="140" height="26" as="geometry" />
        </mxCell>
        <mxCell id="eX2jxu2ITeucqgjZJR2B-34" style="edgeStyle=none;curved=1;rounded=0;orthogonalLoop=1;jettySize=auto;html=1;exitX=1;exitY=0;exitDx=0;exitDy=0;endArrow=open;startSize=14;endSize=14;sourcePerimeterSpacing=8;targetPerimeterSpacing=8;" edge="1" parent="frFDjsqqBPVcF-4FdYOh-1" source="eX2jxu2ITeucqgjZJR2B-9">
          <mxGeometry relative="1" as="geometry">
            <mxPoint x="469.9999999999999" y="49.72413793103448" as="targetPoint" />
          </mxGeometry>
        </mxCell>
        <mxCell id="eX2jxu2ITeucqgjZJR2B-35" value="проходит" style="edgeLabel;html=1;align=center;verticalAlign=middle;resizable=0;points=[];" vertex="1" connectable="0" parent="eX2jxu2ITeucqgjZJR2B-34">
          <mxGeometry x="0.1738" relative="1" as="geometry">
            <mxPoint as="offset" />
          </mxGeometry>
        </mxCell>
        <mxCell id="eX2jxu2ITeucqgjZJR2B-58" style="edgeStyle=none;curved=1;rounded=0;orthogonalLoop=1;jettySize=auto;html=1;exitX=1;exitY=0;exitDx=0;exitDy=0;entryX=0;entryY=0;entryDx=0;entryDy=0;endArrow=open;startSize=14;endSize=14;sourcePerimeterSpacing=8;targetPerimeterSpacing=8;" edge="1" parent="frFDjsqqBPVcF-4FdYOh-1" source="eX2jxu2ITeucqgjZJR2B-9" target="eX2jxu2ITeucqgjZJR2B-50">
          <mxGeometry relative="1" as="geometry" />
        </mxCell>
        <mxCell id="eX2jxu2ITeucqgjZJR2B-59" value="изучает" style="edgeLabel;html=1;align=center;verticalAlign=middle;resizable=0;points=[];" vertex="1" connectable="0" parent="eX2jxu2ITeucqgjZJR2B-58">
          <mxGeometry x="-0.3882" y="-2" relative="1" as="geometry">
            <mxPoint y="1" as="offset" />
          </mxGeometry>
        </mxCell>
        <mxCell id="eX2jxu2ITeucqgjZJR2B-9" value="студент" style="swimlane;fontStyle=0;childLayout=stackLayout;horizontal=1;startSize=26;fillColor=none;horizontalStack=0;resizeParent=1;resizeParentMax=0;resizeLast=0;collapsible=1;marginBottom=0;hachureGap=4;pointerEvents=0;" vertex="1" parent="frFDjsqqBPVcF-4FdYOh-1">
          <mxGeometry x="230" y="50" width="130" height="156" as="geometry">
            <mxRectangle x="310" y="180" width="80" height="26" as="alternateBounds" />
          </mxGeometry>
        </mxCell>
        <mxCell id="eX2jxu2ITeucqgjZJR2B-10" value="фио" style="text;strokeColor=none;fillColor=none;align=left;verticalAlign=top;spacingLeft=4;spacingRight=4;overflow=hidden;rotatable=0;points=[[0,0.5],[1,0.5]];portConstraint=eastwest;" vertex="1" parent="eX2jxu2ITeucqgjZJR2B-9">
          <mxGeometry y="26" width="130" height="26" as="geometry" />
        </mxCell>
        <mxCell id="eX2jxu2ITeucqgjZJR2B-11" value="возраст" style="text;strokeColor=none;fillColor=none;align=left;verticalAlign=top;spacingLeft=4;spacingRight=4;overflow=hidden;rotatable=0;points=[[0,0.5],[1,0.5]];portConstraint=eastwest;" vertex="1" parent="eX2jxu2ITeucqgjZJR2B-9">
          <mxGeometry y="52" width="130" height="26" as="geometry" />
        </mxCell>
        <mxCell id="eX2jxu2ITeucqgjZJR2B-12" value="группа" style="text;strokeColor=none;fillColor=none;align=left;verticalAlign=top;spacingLeft=4;spacingRight=4;overflow=hidden;rotatable=0;points=[[0,0.5],[1,0.5]];portConstraint=eastwest;" vertex="1" parent="eX2jxu2ITeucqgjZJR2B-9">
          <mxGeometry y="78" width="130" height="26" as="geometry" />
        </mxCell>
        <mxCell id="eX2jxu2ITeucqgjZJR2B-14" value="почта" style="text;strokeColor=none;fillColor=none;align=left;verticalAlign=top;spacingLeft=4;spacingRight=4;overflow=hidden;rotatable=0;points=[[0,0.5],[1,0.5]];portConstraint=eastwest;" vertex="1" parent="eX2jxu2ITeucqgjZJR2B-9">
          <mxGeometry y="104" width="130" height="26" as="geometry" />
        </mxCell>
        <mxCell id="eX2jxu2ITeucqgjZJR2B-15" value="номер телефона" style="text;strokeColor=none;fillColor=none;align=left;verticalAlign=top;spacingLeft=4;spacingRight=4;overflow=hidden;rotatable=0;points=[[0,0.5],[1,0.5]];portConstraint=eastwest;" vertex="1" parent="eX2jxu2ITeucqgjZJR2B-9">
          <mxGeometry y="130" width="130" height="26" as="geometry" />
        </mxCell>
        <mxCell id="eX2jxu2ITeucqgjZJR2B-16" value="проверочная работа" style="swimlane;fontStyle=0;childLayout=stackLayout;horizontal=1;startSize=26;fillColor=none;horizontalStack=0;resizeParent=1;resizeParentMax=0;resizeLast=0;collapsible=1;marginBottom=0;hachureGap=4;pointerEvents=0;" vertex="1" parent="frFDjsqqBPVcF-4FdYOh-1">
          <mxGeometry x="470" y="50" width="140" height="52" as="geometry" />
        </mxCell>
        <mxCell id="eX2jxu2ITeucqgjZJR2B-17" value="текст" style="text;strokeColor=none;fillColor=none;align=left;verticalAlign=top;spacingLeft=4;spacingRight=4;overflow=hidden;rotatable=0;points=[[0,0.5],[1,0.5]];portConstraint=eastwest;" vertex="1" parent="eX2jxu2ITeucqgjZJR2B-16">
          <mxGeometry y="26" width="140" height="26" as="geometry" />
        </mxCell>
        <mxCell id="eX2jxu2ITeucqgjZJR2B-27" value="оценка" style="swimlane;fontStyle=0;childLayout=stackLayout;horizontal=1;startSize=26;fillColor=none;horizontalStack=0;resizeParent=1;resizeParentMax=0;resizeLast=0;collapsible=1;marginBottom=0;hachureGap=4;pointerEvents=0;" vertex="1" parent="frFDjsqqBPVcF-4FdYOh-1">
          <mxGeometry x="470" y="110" width="140" height="78" as="geometry" />
        </mxCell>
        <mxCell id="eX2jxu2ITeucqgjZJR2B-28" value="работа" style="text;strokeColor=none;fillColor=none;align=left;verticalAlign=top;spacingLeft=4;spacingRight=4;overflow=hidden;rotatable=0;points=[[0,0.5],[1,0.5]];portConstraint=eastwest;" vertex="1" parent="eX2jxu2ITeucqgjZJR2B-27">
          <mxGeometry y="26" width="140" height="26" as="geometry" />
        </mxCell>
        <mxCell id="eX2jxu2ITeucqgjZJR2B-29" value="оценка" style="text;strokeColor=none;fillColor=none;align=left;verticalAlign=top;spacingLeft=4;spacingRight=4;overflow=hidden;rotatable=0;points=[[0,0.5],[1,0.5]];portConstraint=eastwest;" vertex="1" parent="eX2jxu2ITeucqgjZJR2B-27">
          <mxGeometry y="52" width="140" height="26" as="geometry" />
        </mxCell>
        <mxCell id="eX2jxu2ITeucqgjZJR2B-32" style="edgeStyle=none;curved=1;rounded=0;orthogonalLoop=1;jettySize=auto;html=1;exitX=1;exitY=0.5;exitDx=0;exitDy=0;entryX=0;entryY=0.25;entryDx=0;entryDy=0;endArrow=open;startSize=14;endSize=14;sourcePerimeterSpacing=8;targetPerimeterSpacing=8;" edge="1" parent="frFDjsqqBPVcF-4FdYOh-1" source="eX2jxu2ITeucqgjZJR2B-10" target="eX2jxu2ITeucqgjZJR2B-27">
          <mxGeometry relative="1" as="geometry" />
        </mxCell>
        <mxCell id="eX2jxu2ITeucqgjZJR2B-33" value="получает" style="edgeLabel;html=1;align=center;verticalAlign=middle;resizable=0;points=[];" vertex="1" connectable="0" parent="eX2jxu2ITeucqgjZJR2B-32">
          <mxGeometry x="-0.3935" relative="1" as="geometry">
            <mxPoint as="offset" />
          </mxGeometry>
        </mxCell>
        <mxCell id="eX2jxu2ITeucqgjZJR2B-46" style="edgeStyle=none;curved=1;rounded=0;orthogonalLoop=1;jettySize=auto;html=1;exitX=1;exitY=0;exitDx=0;exitDy=0;entryX=0;entryY=0.5;entryDx=0;entryDy=0;endArrow=open;startSize=14;endSize=14;sourcePerimeterSpacing=8;targetPerimeterSpacing=8;" edge="1" parent="frFDjsqqBPVcF-4FdYOh-1" source="eX2jxu2ITeucqgjZJR2B-41" target="eX2jxu2ITeucqgjZJR2B-17">
          <mxGeometry relative="1" as="geometry" />
        </mxCell>
        <mxCell id="eX2jxu2ITeucqgjZJR2B-47" value="дает" style="edgeLabel;html=1;align=center;verticalAlign=middle;resizable=0;points=[];" vertex="1" connectable="0" parent="eX2jxu2ITeucqgjZJR2B-46">
          <mxGeometry x="-0.3119" y="-3" relative="1" as="geometry">
            <mxPoint as="offset" />
          </mxGeometry>
        </mxCell>
        <mxCell id="eX2jxu2ITeucqgjZJR2B-41" value="преподаватель" style="swimlane;fontStyle=0;childLayout=stackLayout;horizontal=1;startSize=26;fillColor=none;horizontalStack=0;resizeParent=1;resizeParentMax=0;resizeLast=0;collapsible=1;marginBottom=0;hachureGap=4;pointerEvents=0;" vertex="1" parent="frFDjsqqBPVcF-4FdYOh-1">
          <mxGeometry x="230" y="230" width="140" height="78" as="geometry" />
        </mxCell>
        <mxCell id="eX2jxu2ITeucqgjZJR2B-42" value="фио" style="text;strokeColor=none;fillColor=none;align=left;verticalAlign=top;spacingLeft=4;spacingRight=4;overflow=hidden;rotatable=0;points=[[0,0.5],[1,0.5]];portConstraint=eastwest;" vertex="1" parent="eX2jxu2ITeucqgjZJR2B-41">
          <mxGeometry y="26" width="140" height="26" as="geometry" />
        </mxCell>
        <mxCell id="eX2jxu2ITeucqgjZJR2B-43" value="номер телефона" style="text;strokeColor=none;fillColor=none;align=left;verticalAlign=top;spacingLeft=4;spacingRight=4;overflow=hidden;rotatable=0;points=[[0,0.5],[1,0.5]];portConstraint=eastwest;" vertex="1" parent="eX2jxu2ITeucqgjZJR2B-41">
          <mxGeometry y="52" width="140" height="26" as="geometry" />
        </mxCell>
        <mxCell id="eX2jxu2ITeucqgjZJR2B-45" style="edgeStyle=none;curved=1;rounded=0;orthogonalLoop=1;jettySize=auto;html=1;exitX=1;exitY=0.5;exitDx=0;exitDy=0;entryX=0;entryY=0;entryDx=0;entryDy=0;endArrow=open;startSize=14;endSize=14;sourcePerimeterSpacing=8;targetPerimeterSpacing=8;" edge="1" parent="frFDjsqqBPVcF-4FdYOh-1" source="eX2jxu2ITeucqgjZJR2B-6" target="eX2jxu2ITeucqgjZJR2B-41">
          <mxGeometry relative="1" as="geometry" />
        </mxCell>
        <mxCell id="eX2jxu2ITeucqgjZJR2B-48" style="edgeStyle=none;curved=1;rounded=0;orthogonalLoop=1;jettySize=auto;html=1;exitX=1;exitY=0.5;exitDx=0;exitDy=0;entryX=-0.005;entryY=-0.077;entryDx=0;entryDy=0;entryPerimeter=0;endArrow=open;startSize=14;endSize=14;sourcePerimeterSpacing=8;targetPerimeterSpacing=8;" edge="1" parent="frFDjsqqBPVcF-4FdYOh-1" source="eX2jxu2ITeucqgjZJR2B-42" target="eX2jxu2ITeucqgjZJR2B-28">
          <mxGeometry relative="1" as="geometry" />
        </mxCell>
        <mxCell id="eX2jxu2ITeucqgjZJR2B-49" value="ставит" style="edgeLabel;html=1;align=center;verticalAlign=middle;resizable=0;points=[];" vertex="1" connectable="0" parent="eX2jxu2ITeucqgjZJR2B-48">
          <mxGeometry x="-0.1941" y="-1" relative="1" as="geometry">
            <mxPoint y="1" as="offset" />
          </mxGeometry>
        </mxCell>
        <mxCell id="eX2jxu2ITeucqgjZJR2B-50" value="материал" style="swimlane;fontStyle=0;childLayout=stackLayout;horizontal=1;startSize=26;fillColor=none;horizontalStack=0;resizeParent=1;resizeParentMax=0;resizeLast=0;collapsible=1;marginBottom=0;hachureGap=4;pointerEvents=0;" vertex="1" parent="frFDjsqqBPVcF-4FdYOh-1">
          <mxGeometry x="470" y="-48" width="140" height="78" as="geometry" />
        </mxCell>
        <mxCell id="eX2jxu2ITeucqgjZJR2B-51" value="название" style="text;strokeColor=none;fillColor=none;align=left;verticalAlign=top;spacingLeft=4;spacingRight=4;overflow=hidden;rotatable=0;points=[[0,0.5],[1,0.5]];portConstraint=eastwest;" vertex="1" parent="eX2jxu2ITeucqgjZJR2B-50">
          <mxGeometry y="26" width="140" height="26" as="geometry" />
        </mxCell>
        <mxCell id="eX2jxu2ITeucqgjZJR2B-52" value="текст" style="text;strokeColor=none;fillColor=none;align=left;verticalAlign=top;spacingLeft=4;spacingRight=4;overflow=hidden;rotatable=0;points=[[0,0.5],[1,0.5]];portConstraint=eastwest;" vertex="1" parent="eX2jxu2ITeucqgjZJR2B-50">
          <mxGeometry y="52" width="140" height="26" as="geometry" />
        </mxCell>
        <mxCell id="eX2jxu2ITeucqgjZJR2B-60" value="группа" style="swimlane;fontStyle=0;childLayout=stackLayout;horizontal=1;startSize=26;fillColor=none;horizontalStack=0;resizeParent=1;resizeParentMax=0;resizeLast=0;collapsible=1;marginBottom=0;hachureGap=4;pointerEvents=0;" vertex="1" parent="frFDjsqqBPVcF-4FdYOh-1">
          <mxGeometry x="30" y="128" width="140" height="52" as="geometry" />
        </mxCell>
        <mxCell id="eX2jxu2ITeucqgjZJR2B-61" value="номер" style="text;strokeColor=none;fillColor=none;align=left;verticalAlign=top;spacingLeft=4;spacingRight=4;overflow=hidden;rotatable=0;points=[[0,0.5],[1,0.5]];portConstraint=eastwest;" vertex="1" parent="eX2jxu2ITeucqgjZJR2B-60">
          <mxGeometry y="26" width="140" height="26" as="geometry" />
        </mxCell>
        <mxCell id="eX2jxu2ITeucqgjZJR2B-66" style="edgeStyle=none;curved=1;rounded=0;orthogonalLoop=1;jettySize=auto;html=1;exitX=0;exitY=0.5;exitDx=0;exitDy=0;entryX=1;entryY=0;entryDx=0;entryDy=0;endArrow=open;startSize=14;endSize=14;sourcePerimeterSpacing=8;targetPerimeterSpacing=8;" edge="1" parent="frFDjsqqBPVcF-4FdYOh-1" source="eX2jxu2ITeucqgjZJR2B-10" target="eX2jxu2ITeucqgjZJR2B-60">
          <mxGeometry relative="1" as="geometry" />
        </mxCell>
        <mxCell id="eX2jxu2ITeucqgjZJR2B-67" value="состоит" style="edgeLabel;html=1;align=center;verticalAlign=middle;resizable=0;points=[];" vertex="1" connectable="0" parent="eX2jxu2ITeucqgjZJR2B-66">
          <mxGeometry x="-0.3598" y="1" relative="1" as="geometry">
            <mxPoint y="1" as="offset" />
          </mxGeometry>
        </mxCell>
        <mxCell id="rU0hyUKW5mBNDKr7K5Bn-0" style="edgeStyle=none;curved=1;rounded=0;orthogonalLoop=1;jettySize=auto;html=1;exitX=1;exitY=0.5;exitDx=0;exitDy=0;entryX=1.014;entryY=-0.005;entryDx=0;entryDy=0;entryPerimeter=0;endArrow=open;startSize=14;endSize=14;sourcePerimeterSpacing=8;targetPerimeterSpacing=8;" edge="1" parent="frFDjsqqBPVcF-4FdYOh-1" source="eX2jxu2ITeucqgjZJR2B-28" target="eX2jxu2ITeucqgjZJR2B-17">
          <mxGeometry relative="1" as="geometry">
            <Array as="points">
              <mxPoint x="670" y="120" />
            </Array>
          </mxGeometry>
        </mxCell>
      </root>
    </mxGraphModel>
  </diagram>
  <diagram id="_JdUWjhfRVceXH4N9vhW" name="бд_физ">
    <mxGraphModel dx="840" dy="1748" grid="1" gridSize="10" guides="1" tooltips="1" connect="1" arrows="1" fold="1" page="1" pageScale="1" pageWidth="827" pageHeight="1169" math="0" shadow="0">
      <root>
        <mxCell id="pV9HryKatQPe7E35FiKW-0" />
        <mxCell id="pV9HryKatQPe7E35FiKW-1" parent="pV9HryKatQPe7E35FiKW-0" />
        <mxCell id="kUvs74aOi-n3enG1m75y-0" style="edgeStyle=none;curved=1;rounded=0;orthogonalLoop=1;jettySize=auto;html=1;exitX=1;exitY=0;exitDx=0;exitDy=0;entryX=0;entryY=0;entryDx=0;entryDy=0;endArrow=open;startSize=14;endSize=14;sourcePerimeterSpacing=8;targetPerimeterSpacing=8;" edge="1" parent="pV9HryKatQPe7E35FiKW-1" source="kUvs74aOi-n3enG1m75y-1" target="kUvs74aOi-n3enG1m75y-7">
          <mxGeometry relative="1" as="geometry" />
        </mxCell>
        <mxCell id="kUvs74aOi-n3enG1m75y-1" value="пользователь" style="swimlane;fontStyle=0;childLayout=stackLayout;horizontal=1;startSize=26;fillColor=none;horizontalStack=0;resizeParent=1;resizeParentMax=0;resizeLast=0;collapsible=1;marginBottom=0;hachureGap=4;pointerEvents=0;" vertex="1" parent="pV9HryKatQPe7E35FiKW-1">
          <mxGeometry x="20" y="30" width="140" height="52" as="geometry" />
        </mxCell>
        <mxCell id="kUvs74aOi-n3enG1m75y-2" value="name" style="text;strokeColor=none;fillColor=none;align=left;verticalAlign=top;spacingLeft=4;spacingRight=4;overflow=hidden;rotatable=0;points=[[0,0.5],[1,0.5]];portConstraint=eastwest;" vertex="1" parent="kUvs74aOi-n3enG1m75y-1">
          <mxGeometry y="26" width="140" height="26" as="geometry" />
        </mxCell>
        <mxCell id="kUvs74aOi-n3enG1m75y-3" style="edgeStyle=none;curved=1;rounded=0;orthogonalLoop=1;jettySize=auto;html=1;exitX=1;exitY=0;exitDx=0;exitDy=0;endArrow=open;startSize=14;endSize=14;sourcePerimeterSpacing=8;targetPerimeterSpacing=8;" edge="1" parent="pV9HryKatQPe7E35FiKW-1" source="kUvs74aOi-n3enG1m75y-7">
          <mxGeometry relative="1" as="geometry">
            <mxPoint x="470" y="49.72413793103419" as="targetPoint" />
          </mxGeometry>
        </mxCell>
        <mxCell id="kUvs74aOi-n3enG1m75y-4" value="проходит" style="edgeLabel;html=1;align=center;verticalAlign=middle;resizable=0;points=[];" vertex="1" connectable="0" parent="kUvs74aOi-n3enG1m75y-3">
          <mxGeometry x="0.1738" relative="1" as="geometry">
            <mxPoint as="offset" />
          </mxGeometry>
        </mxCell>
        <mxCell id="kUvs74aOi-n3enG1m75y-5" style="edgeStyle=none;curved=1;rounded=0;orthogonalLoop=1;jettySize=auto;html=1;exitX=1;exitY=0;exitDx=0;exitDy=0;entryX=0;entryY=0;entryDx=0;entryDy=0;endArrow=open;startSize=14;endSize=14;sourcePerimeterSpacing=8;targetPerimeterSpacing=8;" edge="1" parent="pV9HryKatQPe7E35FiKW-1" source="kUvs74aOi-n3enG1m75y-7" target="kUvs74aOi-n3enG1m75y-28">
          <mxGeometry relative="1" as="geometry" />
        </mxCell>
        <mxCell id="kUvs74aOi-n3enG1m75y-6" value="изучает" style="edgeLabel;html=1;align=center;verticalAlign=middle;resizable=0;points=[];" vertex="1" connectable="0" parent="kUvs74aOi-n3enG1m75y-5">
          <mxGeometry x="-0.3882" y="-2" relative="1" as="geometry">
            <mxPoint y="1" as="offset" />
          </mxGeometry>
        </mxCell>
        <mxCell id="kUvs74aOi-n3enG1m75y-7" value="студент" style="swimlane;fontStyle=0;childLayout=stackLayout;horizontal=1;startSize=26;fillColor=none;horizontalStack=0;resizeParent=1;resizeParentMax=0;resizeLast=0;collapsible=1;marginBottom=0;hachureGap=4;pointerEvents=0;" vertex="1" parent="pV9HryKatQPe7E35FiKW-1">
          <mxGeometry x="230" y="50" width="130" height="156" as="geometry">
            <mxRectangle x="310" y="180" width="80" height="26" as="alternateBounds" />
          </mxGeometry>
        </mxCell>
        <mxCell id="kUvs74aOi-n3enG1m75y-8" value="фио" style="text;strokeColor=none;fillColor=none;align=left;verticalAlign=top;spacingLeft=4;spacingRight=4;overflow=hidden;rotatable=0;points=[[0,0.5],[1,0.5]];portConstraint=eastwest;" vertex="1" parent="kUvs74aOi-n3enG1m75y-7">
          <mxGeometry y="26" width="130" height="26" as="geometry" />
        </mxCell>
        <mxCell id="kUvs74aOi-n3enG1m75y-9" value="возраст" style="text;strokeColor=none;fillColor=none;align=left;verticalAlign=top;spacingLeft=4;spacingRight=4;overflow=hidden;rotatable=0;points=[[0,0.5],[1,0.5]];portConstraint=eastwest;" vertex="1" parent="kUvs74aOi-n3enG1m75y-7">
          <mxGeometry y="52" width="130" height="26" as="geometry" />
        </mxCell>
        <mxCell id="kUvs74aOi-n3enG1m75y-10" value="группа" style="text;strokeColor=none;fillColor=none;align=left;verticalAlign=top;spacingLeft=4;spacingRight=4;overflow=hidden;rotatable=0;points=[[0,0.5],[1,0.5]];portConstraint=eastwest;" vertex="1" parent="kUvs74aOi-n3enG1m75y-7">
          <mxGeometry y="78" width="130" height="26" as="geometry" />
        </mxCell>
        <mxCell id="kUvs74aOi-n3enG1m75y-11" value="почта" style="text;strokeColor=none;fillColor=none;align=left;verticalAlign=top;spacingLeft=4;spacingRight=4;overflow=hidden;rotatable=0;points=[[0,0.5],[1,0.5]];portConstraint=eastwest;" vertex="1" parent="kUvs74aOi-n3enG1m75y-7">
          <mxGeometry y="104" width="130" height="26" as="geometry" />
        </mxCell>
        <mxCell id="kUvs74aOi-n3enG1m75y-12" value="номер телефона" style="text;strokeColor=none;fillColor=none;align=left;verticalAlign=top;spacingLeft=4;spacingRight=4;overflow=hidden;rotatable=0;points=[[0,0.5],[1,0.5]];portConstraint=eastwest;" vertex="1" parent="kUvs74aOi-n3enG1m75y-7">
          <mxGeometry y="130" width="130" height="26" as="geometry" />
        </mxCell>
        <mxCell id="kUvs74aOi-n3enG1m75y-13" value="проверочная работа" style="swimlane;fontStyle=0;childLayout=stackLayout;horizontal=1;startSize=26;fillColor=none;horizontalStack=0;resizeParent=1;resizeParentMax=0;resizeLast=0;collapsible=1;marginBottom=0;hachureGap=4;pointerEvents=0;" vertex="1" parent="pV9HryKatQPe7E35FiKW-1">
          <mxGeometry x="470" y="50" width="140" height="78" as="geometry" />
        </mxCell>
        <mxCell id="kUvs74aOi-n3enG1m75y-14" value="текст" style="text;strokeColor=none;fillColor=none;align=left;verticalAlign=top;spacingLeft=4;spacingRight=4;overflow=hidden;rotatable=0;points=[[0,0.5],[1,0.5]];portConstraint=eastwest;" vertex="1" parent="kUvs74aOi-n3enG1m75y-13">
          <mxGeometry y="26" width="140" height="26" as="geometry" />
        </mxCell>
        <mxCell id="xoHa32aPAKd6IqYsf454-1" value="оценка&#xa;" style="text;strokeColor=none;fillColor=none;align=left;verticalAlign=top;spacingLeft=4;spacingRight=4;overflow=hidden;rotatable=0;points=[[0,0.5],[1,0.5]];portConstraint=eastwest;" vertex="1" parent="kUvs74aOi-n3enG1m75y-13">
          <mxGeometry y="52" width="140" height="26" as="geometry" />
        </mxCell>
        <mxCell id="kUvs74aOi-n3enG1m75y-20" style="edgeStyle=none;curved=1;rounded=0;orthogonalLoop=1;jettySize=auto;html=1;exitX=1;exitY=0;exitDx=0;exitDy=0;entryX=0;entryY=0.5;entryDx=0;entryDy=0;endArrow=open;startSize=14;endSize=14;sourcePerimeterSpacing=8;targetPerimeterSpacing=8;" edge="1" parent="pV9HryKatQPe7E35FiKW-1" source="kUvs74aOi-n3enG1m75y-22" target="kUvs74aOi-n3enG1m75y-14">
          <mxGeometry relative="1" as="geometry" />
        </mxCell>
        <mxCell id="xoHa32aPAKd6IqYsf454-2" value="назначает" style="edgeLabel;html=1;align=center;verticalAlign=middle;resizable=0;points=[];" vertex="1" connectable="0" parent="kUvs74aOi-n3enG1m75y-20">
          <mxGeometry x="0.156" y="3" relative="1" as="geometry">
            <mxPoint as="offset" />
          </mxGeometry>
        </mxCell>
        <mxCell id="kUvs74aOi-n3enG1m75y-22" value="преподаватель" style="swimlane;fontStyle=0;childLayout=stackLayout;horizontal=1;startSize=26;fillColor=none;horizontalStack=0;resizeParent=1;resizeParentMax=0;resizeLast=0;collapsible=1;marginBottom=0;hachureGap=4;pointerEvents=0;" vertex="1" parent="pV9HryKatQPe7E35FiKW-1">
          <mxGeometry x="230" y="230" width="140" height="78" as="geometry" />
        </mxCell>
        <mxCell id="kUvs74aOi-n3enG1m75y-23" value="фио" style="text;strokeColor=none;fillColor=none;align=left;verticalAlign=top;spacingLeft=4;spacingRight=4;overflow=hidden;rotatable=0;points=[[0,0.5],[1,0.5]];portConstraint=eastwest;" vertex="1" parent="kUvs74aOi-n3enG1m75y-22">
          <mxGeometry y="26" width="140" height="26" as="geometry" />
        </mxCell>
        <mxCell id="kUvs74aOi-n3enG1m75y-24" value="номер телефона" style="text;strokeColor=none;fillColor=none;align=left;verticalAlign=top;spacingLeft=4;spacingRight=4;overflow=hidden;rotatable=0;points=[[0,0.5],[1,0.5]];portConstraint=eastwest;" vertex="1" parent="kUvs74aOi-n3enG1m75y-22">
          <mxGeometry y="52" width="140" height="26" as="geometry" />
        </mxCell>
        <mxCell id="kUvs74aOi-n3enG1m75y-25" style="edgeStyle=none;curved=1;rounded=0;orthogonalLoop=1;jettySize=auto;html=1;exitX=1;exitY=0.5;exitDx=0;exitDy=0;entryX=0;entryY=0;entryDx=0;entryDy=0;endArrow=open;startSize=14;endSize=14;sourcePerimeterSpacing=8;targetPerimeterSpacing=8;" edge="1" parent="pV9HryKatQPe7E35FiKW-1" source="kUvs74aOi-n3enG1m75y-2" target="kUvs74aOi-n3enG1m75y-22">
          <mxGeometry relative="1" as="geometry" />
        </mxCell>
        <mxCell id="kUvs74aOi-n3enG1m75y-28" value="материал" style="swimlane;fontStyle=0;childLayout=stackLayout;horizontal=1;startSize=26;fillColor=none;horizontalStack=0;resizeParent=1;resizeParentMax=0;resizeLast=0;collapsible=1;marginBottom=0;hachureGap=4;pointerEvents=0;" vertex="1" parent="pV9HryKatQPe7E35FiKW-1">
          <mxGeometry x="470" y="-48" width="140" height="78" as="geometry" />
        </mxCell>
        <mxCell id="kUvs74aOi-n3enG1m75y-29" value="название" style="text;strokeColor=none;fillColor=none;align=left;verticalAlign=top;spacingLeft=4;spacingRight=4;overflow=hidden;rotatable=0;points=[[0,0.5],[1,0.5]];portConstraint=eastwest;" vertex="1" parent="kUvs74aOi-n3enG1m75y-28">
          <mxGeometry y="26" width="140" height="26" as="geometry" />
        </mxCell>
        <mxCell id="kUvs74aOi-n3enG1m75y-30" value="текст" style="text;strokeColor=none;fillColor=none;align=left;verticalAlign=top;spacingLeft=4;spacingRight=4;overflow=hidden;rotatable=0;points=[[0,0.5],[1,0.5]];portConstraint=eastwest;" vertex="1" parent="kUvs74aOi-n3enG1m75y-28">
          <mxGeometry y="52" width="140" height="26" as="geometry" />
        </mxCell>
        <mxCell id="kUvs74aOi-n3enG1m75y-31" value="группа" style="swimlane;fontStyle=0;childLayout=stackLayout;horizontal=1;startSize=26;fillColor=none;horizontalStack=0;resizeParent=1;resizeParentMax=0;resizeLast=0;collapsible=1;marginBottom=0;hachureGap=4;pointerEvents=0;" vertex="1" parent="pV9HryKatQPe7E35FiKW-1">
          <mxGeometry x="30" y="128" width="140" height="52" as="geometry" />
        </mxCell>
        <mxCell id="kUvs74aOi-n3enG1m75y-32" value="номер" style="text;strokeColor=none;fillColor=none;align=left;verticalAlign=top;spacingLeft=4;spacingRight=4;overflow=hidden;rotatable=0;points=[[0,0.5],[1,0.5]];portConstraint=eastwest;" vertex="1" parent="kUvs74aOi-n3enG1m75y-31">
          <mxGeometry y="26" width="140" height="26" as="geometry" />
        </mxCell>
        <mxCell id="kUvs74aOi-n3enG1m75y-33" style="edgeStyle=none;curved=1;rounded=0;orthogonalLoop=1;jettySize=auto;html=1;exitX=0;exitY=0.5;exitDx=0;exitDy=0;entryX=1;entryY=0;entryDx=0;entryDy=0;endArrow=open;startSize=14;endSize=14;sourcePerimeterSpacing=8;targetPerimeterSpacing=8;" edge="1" parent="pV9HryKatQPe7E35FiKW-1" source="kUvs74aOi-n3enG1m75y-8" target="kUvs74aOi-n3enG1m75y-31">
          <mxGeometry relative="1" as="geometry" />
        </mxCell>
        <mxCell id="kUvs74aOi-n3enG1m75y-34" value="состоит" style="edgeLabel;html=1;align=center;verticalAlign=middle;resizable=0;points=[];" vertex="1" connectable="0" parent="kUvs74aOi-n3enG1m75y-33">
          <mxGeometry x="-0.3598" y="1" relative="1" as="geometry">
            <mxPoint y="1" as="offset" />
          </mxGeometry>
        </mxCell>
      </root>
    </mxGraphModel>
  </diagram>
</mxfile>
